<?xml version="1.0" encoding="UTF-8"?>
<svg id="svg5" xmlns="http://www.w3.org/2000/svg" version="1.1" xmlns:inkscape="http://www.inkscape.org/namespaces/inkscape" xmlns:sodipodi="http://sodipodi.sourceforge.net/DTD/sodipodi-0.dtd" xmlns:svg="http://www.w3.org/2000/svg" viewBox="0 0 573.2 350">
  <!-- Generator: Adobe Illustrator 29.1.0, SVG Export Plug-In . SVG Version: 2.1.0 Build 142)  -->
  <defs>
    <style>
      .st0 {
        fill: #ccc;
      }
    </style>
  </defs>
  <sodipodi:namedview id="namedview7" height="350px" bordercolor="#666666" borderopacity="1.0" inkscape:bbox-nodes="false" inkscape:current-layer="svg5" inkscape:cx="173.25" inkscape:cy="170.25" inkscape:document-units="mm" inkscape:guide-bbox="true" inkscape:object-paths="false" inkscape:pagecheckerboard="0" inkscape:pageopacity="0.0" inkscape:pageshadow="2" inkscape:snap-bbox="false" inkscape:snap-bbox-edge-midpoints="false" inkscape:snap-bbox-midpoints="false" inkscape:snap-center="false" inkscape:snap-global="true" inkscape:snap-intersection-paths="false" inkscape:snap-object-midpoints="false" inkscape:snap-smooth-nodes="false" inkscape:window-height="1001" inkscape:window-maximized="1" inkscape:window-width="1920" inkscape:window-x="-9" inkscape:window-y="-9" inkscape:zoom="2" pagecolor="#ffffff" showgrid="false" showguides="true" units="px"/>
  <g>
    <path class="st0" d="M389.4,169.2l-10.5-14.3c-14,14-24,31.4-28.9,50.5l17.9,1c4.1-13.8,11.5-26.5,21.5-37v-.2Z"/>
    <path class="st0" d="M194.1,55.1h17.4c1,0,2,.3,3,.8,2.8,1.6,3.8,5.3,2.1,8.1l-82.2,141.2c-1.6,2.8-4.6,6.7-6.9,8.9l-14.6,14.6c-2.3,2.3-2.3,5.9,0,8.2s5.9,2.3,8.2,0l11.7-11.7c4.4-4.4,10.7-12.5,13.8-17.9l80.1-137.6c4.9-8.4,2.1-19.1-6.4-24-2.8-1.6-5.8-2.3-8.7-2.5h-10.7c-3.9,0-5.4-2.8-3.5-6.1l7.1-12.2c2-3.5,6.7-6.1,10.7-6.1h48.8l-8.5-11.7h-40.3c-11.5,0-18.4,7.9-24.2,17.8l-7.1,12.2c-5.8,9.9-1.2,17.9,10.2,17.9h0Z"/>
    <path class="st0" d="M456.2,140.6c48.7,0,88.6,37.8,91.9,85.8h17.6c-3.3-57.5-51.1-103.3-109.5-103.3h0c-16.1,0-32.1,3.6-46.5,10.4l10.5,14.5c11.3-4.9,23.7-7.4,36-7.4Z"/>
    <path class="st0" d="M226.3,226.3c-1.6-27.6-13.6-53.6-33.7-72.8l-9.2,15.6c15,15.6,23.8,35.8,25.3,57.2h17.6,0Z"/>
    <path class="st0" d="M336.7,79.8l39.5,6.2-11,15.1h-142.1l-6.7,11.7h148l70.7,97,15.1.8-75-102.9,14.5-19.9c7.1-1,15-3.3,15-9.2,0-8.5-13.3-11.8-19.2-11.8h-48.3c-3.5,0-6.1,2.5-6.1,5.8s3.1,6.7,6.1,7.2h-.5Z"/>
    <polygon class="st0" points="347.2 125.7 291.5 202.3 305.4 202.9 359.7 128.5 357.7 125.7 347.2 125.7"/>
    <path class="st0" d="M456.2,324.9c-40.6,0-76.5-26.8-88.3-65.8l-17.9,1c12.5,48.5,56.2,82.2,106.2,82.4,58.4,0,106.2-45.7,109.5-103.3h-17.6c-3.3,47.8-43.2,85.8-91.9,85.8v-.2h0Z"/>
    <path class="st0" d="M465.1,232.7c0-4.4-4.4-8.7-9-9l-169.7-9h-.8c-8.7,0-17.1,8.9-17.1,17.9s9,18.4,17.9,17.9l169.7-9c4.4-.2,9-4.6,9-9v.3h0Z"/>
    <path class="st0" d="M116.8,324.9c-48.8,0-88.6-37.8-91.9-85.8H7.3c3.3,57.5,51.1,103.3,109.5,103.3s106.2-45.7,109.5-103.3h-17.6c-3.3,47.8-43.2,85.8-91.9,85.8Z"/>
    <polygon class="st0" points="212.2 119.9 205.8 130.9 256.4 200.5 271.4 201.1 212.2 119.9"/>
    <path class="st0" d="M116.8,140.6c12.3,0,24.5,2.5,35.8,7.2l8.9-15.3c-14-6.2-29.3-9.5-44.7-9.5-58.4,0-106.2,45.7-109.5,103.3h17.6c3.3-47.8,43.2-85.8,91.9-85.8v.2h0Z"/>
  </g>
  <g id="_x3C_defs">
    <inkscape:path-effect id="path-effect14824" deform_type="perspective" down_left_point="35.066599,293.86006" down_right_point="314.92909,293.86006" effect="perspective-envelope" horizontal_mirror="false" is_visible="true" lpeversion="1" overflow_perspective="false" up_left_point="54.614835,260.13086" up_right_point="295.38083,260.13086" vertical_mirror="false"/>
  </g>
</svg>